<?xml version="1.0" encoding="UTF-8"?>
<svg xmlns="http://www.w3.org/2000/svg" xmlns:xlink="http://www.w3.org/1999/xlink" width="24px" height="24px" viewBox="0 0 24 24" version="1.1">
<g id="surface1">
<path style=" stroke:none;fill-rule:nonzero;fill:rgb(65.098041%,65.098041%,65.098041%);fill-opacity:1;" d="M 5.429688 0.714844 C 5.515625 0.714844 5.515625 0.714844 5.605469 0.710938 C 5.765625 0.710938 5.929688 0.710938 6.089844 0.710938 C 6.265625 0.710938 6.441406 0.710938 6.613281 0.710938 C 6.996094 0.710938 7.375 0.710938 7.757812 0.710938 C 7.996094 0.710938 8.234375 0.710938 8.472656 0.710938 C 9.132812 0.710938 9.792969 0.707031 10.453125 0.707031 C 10.496094 0.707031 10.539062 0.707031 10.582031 0.707031 C 10.625 0.707031 10.667969 0.707031 10.710938 0.707031 C 10.796875 0.707031 10.882812 0.707031 10.96875 0.707031 C 11.011719 0.707031 11.054688 0.707031 11.097656 0.707031 C 11.785156 0.707031 12.476562 0.707031 13.164062 0.707031 C 13.871094 0.707031 14.582031 0.703125 15.289062 0.703125 C 15.6875 0.703125 16.082031 0.703125 16.480469 0.703125 C 16.820312 0.703125 17.15625 0.703125 17.496094 0.703125 C 17.667969 0.703125 17.839844 0.703125 18.015625 0.703125 C 18.203125 0.703125 18.390625 0.703125 18.578125 0.703125 C 18.628906 0.703125 18.683594 0.703125 18.738281 0.703125 C 20.007812 0.710938 21.09375 1.289062 21.992188 2.152344 C 22.875 3.0625 23.296875 4.25 23.292969 5.503906 C 23.292969 5.5625 23.292969 5.621094 23.292969 5.679688 C 23.292969 5.839844 23.292969 6 23.292969 6.160156 C 23.292969 6.332031 23.292969 6.507812 23.296875 6.679688 C 23.296875 7.019531 23.296875 7.359375 23.296875 7.699219 C 23.296875 7.972656 23.296875 8.25 23.296875 8.527344 C 23.296875 9.308594 23.296875 10.09375 23.296875 10.878906 C 23.296875 10.921875 23.296875 10.960938 23.296875 11.007812 C 23.296875 11.046875 23.296875 11.089844 23.296875 11.132812 C 23.296875 11.816406 23.296875 12.503906 23.300781 13.1875 C 23.300781 13.890625 23.300781 14.59375 23.300781 15.296875 C 23.300781 15.691406 23.300781 16.085938 23.304688 16.480469 C 23.304688 16.816406 23.304688 17.15625 23.304688 17.492188 C 23.304688 17.660156 23.304688 17.832031 23.304688 18.003906 C 23.3125 19.515625 22.992188 20.800781 21.917969 21.90625 C 21.875 21.949219 21.835938 21.988281 21.792969 22.03125 C 21.761719 22.0625 21.730469 22.09375 21.699219 22.128906 C 20.84375 22.933594 19.632812 23.289062 18.484375 23.285156 C 18.425781 23.285156 18.371094 23.285156 18.3125 23.289062 C 18.152344 23.289062 17.992188 23.289062 17.835938 23.289062 C 17.664062 23.289062 17.492188 23.289062 17.320312 23.289062 C 16.945312 23.289062 16.570312 23.289062 16.199219 23.289062 C 15.964844 23.289062 15.730469 23.289062 15.496094 23.289062 C 14.847656 23.289062 14.195312 23.292969 13.546875 23.292969 C 13.484375 23.292969 13.484375 23.292969 13.421875 23.292969 C 13.359375 23.292969 13.359375 23.292969 13.296875 23.292969 C 13.210938 23.292969 13.128906 23.292969 13.042969 23.292969 C 12.980469 23.292969 12.980469 23.292969 12.917969 23.292969 C 12.238281 23.292969 11.5625 23.292969 10.886719 23.292969 C 10.191406 23.292969 9.496094 23.296875 8.800781 23.296875 C 8.410156 23.296875 8.019531 23.296875 7.628906 23.296875 C 7.296875 23.296875 6.964844 23.296875 6.632812 23.296875 C 6.460938 23.296875 6.292969 23.296875 6.121094 23.296875 C 4.675781 23.300781 3.359375 23.089844 2.257812 22.078125 C 2.21875 22.046875 2.183594 22.015625 2.144531 21.980469 C 1.371094 21.253906 0.753906 20.152344 0.714844 19.074219 C 0.714844 18.925781 0.714844 18.773438 0.714844 18.621094 C 0.714844 18.5625 0.714844 18.503906 0.710938 18.441406 C 0.710938 18.28125 0.710938 18.121094 0.710938 17.957031 C 0.710938 17.785156 0.710938 17.609375 0.710938 17.433594 C 0.710938 17.054688 0.710938 16.671875 0.710938 16.292969 C 0.710938 16.054688 0.710938 15.816406 0.710938 15.578125 C 0.710938 14.917969 0.707031 14.257812 0.707031 13.597656 C 0.707031 13.554688 0.707031 13.511719 0.707031 13.46875 C 0.707031 13.425781 0.707031 13.382812 0.707031 13.339844 C 0.707031 13.253906 0.707031 13.167969 0.707031 13.082031 C 0.707031 13.039062 0.707031 12.996094 0.707031 12.953125 C 0.707031 12.265625 0.707031 11.574219 0.707031 10.886719 C 0.707031 10.179688 0.703125 9.472656 0.703125 8.761719 C 0.703125 8.367188 0.703125 7.96875 0.703125 7.570312 C 0.703125 7.234375 0.703125 6.894531 0.703125 6.558594 C 0.703125 6.382812 0.703125 6.210938 0.703125 6.039062 C 0.695312 4.554688 0.953125 3.339844 1.96875 2.207031 C 2 2.171875 2.03125 2.132812 2.066406 2.097656 C 2.929688 1.167969 4.183594 0.710938 5.429688 0.714844 Z M 5.429688 0.714844 "/>
<path style=" stroke:none;fill-rule:nonzero;fill:rgb(84.705883%,84.705883%,84.705883%);fill-opacity:1;" d="M 13.296875 7.871094 C 13.339844 7.882812 13.386719 7.898438 13.433594 7.910156 C 14.429688 8.21875 15.210938 9 15.707031 9.894531 C 16.203125 10.84375 16.285156 11.964844 16.03125 13.003906 C 15.957031 13.242188 15.859375 13.460938 15.742188 13.679688 C 15.722656 13.722656 15.703125 13.761719 15.683594 13.804688 C 15.25 14.683594 14.441406 15.402344 13.523438 15.734375 C 12.398438 16.109375 11.210938 16.121094 10.136719 15.59375 C 9.78125 15.410156 9.460938 15.195312 9.167969 14.929688 C 9.136719 14.902344 9.109375 14.875 9.078125 14.847656 C 8.546875 14.347656 8.15625 13.613281 7.96875 12.910156 C 7.960938 12.882812 7.949219 12.851562 7.941406 12.820312 C 7.863281 12.503906 7.855469 12.195312 7.855469 11.871094 C 7.855469 11.816406 7.859375 11.761719 7.859375 11.703125 C 7.871094 10.773438 8.167969 9.804688 8.832031 9.121094 C 8.863281 9.121094 8.894531 9.121094 8.929688 9.121094 C 8.929688 9.082031 8.929688 9.082031 8.933594 9.039062 C 8.996094 8.875 9.113281 8.785156 9.242188 8.679688 C 9.269531 8.65625 9.296875 8.632812 9.328125 8.609375 C 10.453125 7.703125 11.914062 7.421875 13.296875 7.871094 Z M 13.296875 7.871094 "/>
</g>
</svg>
