<?xml version="1.0" encoding="UTF-8"?>
<svg version="1.1" xmlns="http://www.w3.org/2000/svg" width="500" height="500">
<path d="M0 0 C1.82562781 -0.00445668 1.82562781 -0.00445668 3.68813699 -0.0090034 C7.05437921 -0.01616119 10.42057035 -0.01886096 13.78681648 -0.01960087 C17.42231111 -0.02145772 21.05779481 -0.02900825 24.69328308 -0.03573608 C32.63776857 -0.04929481 40.582249 -0.0553404 48.52674413 -0.05974674 C53.4920476 -0.06251355 58.45734913 -0.06675172 63.42265129 -0.07125092 C77.18345168 -0.08344079 90.94425052 -0.09374039 104.70505619 -0.09712601 C105.58510424 -0.09734557 106.46515229 -0.09756514 107.37186846 -0.09779136 C108.25396478 -0.09800964 109.13606109 -0.09822791 110.0448876 -0.09845281 C111.83220677 -0.09889626 113.61952593 -0.09934283 115.40684509 -0.09979248 C116.29340805 -0.10001391 117.17997101 -0.10023534 118.09339952 -0.10046348 C132.44890859 -0.10440889 146.80436682 -0.12185633 161.15985627 -0.145152 C175.91584942 -0.16890331 190.67181711 -0.18132959 205.42782968 -0.18249393 C213.70570963 -0.18340861 221.98352333 -0.18910857 230.26138496 -0.20731354 C237.31213782 -0.22276568 244.36280395 -0.227805 251.41357053 -0.21957543 C255.00621667 -0.21568683 258.59868846 -0.21651008 262.19131279 -0.23063278 C266.09880702 -0.24585174 270.00606013 -0.23745224 273.91357422 -0.22705078 C275.03141314 -0.23510719 276.14925206 -0.24316359 277.30096489 -0.25146413 C303.75609448 -0.08778342 326.38820417 11.99083882 345.08872986 30.01544189 C363.48218667 48.92540764 372.24120603 73.71191316 372.1686554 99.78233337 C372.17318651 100.99749046 372.17771762 102.21264754 372.18238604 103.46462756 C372.19277969 106.80243613 372.19436915 110.14002747 372.19199729 113.47783649 C372.19158622 117.09149679 372.20265565 120.70512591 372.21211243 124.31877136 C372.22866093 131.38546428 372.23421917 138.45212381 372.23533718 145.51883449 C372.23629056 151.26831178 372.24041525 157.01777814 372.24673843 162.76725197 C372.26433384 179.10082693 372.27357994 195.43437571 372.27207749 211.76796021 C372.27199757 212.64683376 372.27191766 213.5257073 372.27183533 214.43121338 C372.27175357 215.31117129 372.2716718 216.19112919 372.27158757 217.09775249 C372.27077509 231.3507078 372.28990763 245.60355732 372.31811206 259.85648205 C372.34690457 274.5233825 372.36064887 289.19023147 372.35892451 303.85716087 C372.35826282 312.0786291 372.3636578 320.29998643 372.38528061 328.52142906 C372.40357644 335.52222676 372.4077713 342.52286326 372.39426176 349.52367463 C372.38777423 353.08842101 372.38745999 356.65285889 372.40496826 360.21757507 C372.54995474 391.68222863 365.88770222 418.4993621 343.50669861 441.53106689 C342.64689392 442.39216064 341.78708923 443.25325439 340.90122986 444.14044189 C340.25798767 444.79528564 339.61474548 445.45012939 338.95201111 446.12481689 C321.18565098 462.92770847 295.90630596 470.29949674 272.0057373 470.28088379 C270.81048099 470.28385491 269.61522467 470.28682603 268.38374847 470.28988719 C265.07837507 470.29704407 261.77305367 470.29974468 258.46767628 470.30048466 C254.89758358 470.30234177 251.327502 470.30989251 247.75741577 470.31661987 C239.95535346 470.33017852 232.15329631 470.3362244 224.35122418 470.34063053 C219.47368019 470.34339781 214.59613817 470.34763611 209.7185955 470.3521347 C196.19799328 470.36432543 182.67739262 470.3746243 169.15678501 470.3780098 C167.85972471 470.37833915 167.85972471 470.37833915 166.53646117 470.37867515 C165.23639518 470.37900256 165.23639518 470.37900256 163.91006523 470.3793366 C162.15394628 470.37978005 160.39782733 470.38022662 158.64170837 470.38067627 C157.33508048 470.38100841 157.33508048 470.38100841 156.00205605 470.38134727 C141.90332546 470.38529102 127.80464668 470.402733 113.70593608 470.42603579 C99.20983608 470.4498007 84.71376203 470.46221402 70.21764225 470.46337771 C62.08725119 470.46429173 53.95692762 470.46997451 45.82655525 470.48819733 C38.89992569 470.50366802 31.97338447 470.50867807 25.0467409 470.50045922 C21.51865426 470.49657686 17.99074512 470.49736252 14.46268082 470.51151657 C-15.70513625 470.6120105 -43.07503115 466.16999877 -66.09877014 445.14044189 C-66.86576233 444.45466064 -67.63275452 443.76887939 -68.42298889 443.06231689 C-84.51820166 427.89405355 -97.38204584 404.99514126 -98.19202662 382.5570507 C-98.23367 379.38711365 -98.241637 376.21861405 -98.23921204 373.04840088 C-98.24218316 371.83202124 -98.24515428 370.61564159 -98.24821544 369.36240196 C-98.25537323 365.99809036 -98.258073 362.63382984 -98.2588129 359.26951432 C-98.26066977 355.63604557 -98.26822035 352.00258775 -98.27494812 348.36912537 C-98.28850725 340.42870484 -98.2945526 332.48828937 -98.29895878 324.54785919 C-98.30172574 319.58455804 -98.30596396 314.62125883 -98.31046295 309.65795898 C-98.32265329 295.90144981 -98.33295253 282.14494219 -98.33633804 268.38842773 C-98.33655761 267.50863125 -98.33677718 266.62883476 -98.33700339 265.72237778 C-98.33722167 264.84053692 -98.33743995 263.95869606 -98.33766484 263.05013275 C-98.3381083 261.26334127 -98.33855486 259.47654978 -98.33900452 257.6897583 C-98.33922595 256.80345765 -98.33944738 255.917157 -98.33967552 255.00399876 C-98.34362016 240.65563175 -98.36106504 226.30731564 -98.38436404 211.95896828 C-98.40812134 197.20862036 -98.42054191 182.45829792 -98.42170596 167.70793056 C-98.42262035 159.43393111 -98.42831284 151.15999796 -98.44652557 142.88601685 C-98.46198589 135.83785442 -98.46701231 128.78977877 -98.45878747 121.7416026 C-98.45490161 118.15085778 -98.45570836 114.56028738 -98.46984482 110.96956444 C-98.58456004 80.06711478 -93.27924988 54.6986957 -72.09877014 31.14044189 C-71.42459045 30.37216064 -70.75041077 29.60387939 -70.05580139 28.81231689 C-52.06542888 9.50557566 -25.91491887 -0.01981097 0 0 Z " fill="#A6A6A6" transform="translate(113.09877014160156,14.85955810546875)"/>
<path d="M0 0 C0.94359375 0.26554688 1.8871875 0.53109375 2.859375 0.8046875 C23.62481236 7.25548905 39.91276852 23.52386513 50.25 42.125 C60.55763256 61.93569291 62.26988377 85.253887 56.9765625 106.921875 C55.40730802 111.86816513 53.40319161 116.40769418 51 121 C50.59265625 121.86753906 50.1853125 122.73507812 49.765625 123.62890625 C40.72856095 141.88909155 23.88936234 156.84599628 4.76611328 163.81396484 C-18.68932318 171.58916488 -43.41550788 171.87563711 -65.8581543 160.83520508 C-73.20899925 157.00794601 -79.86882484 152.60961962 -86 147 C-86.63035156 146.43796875 -87.26070312 145.8759375 -87.91015625 145.296875 C-98.97648578 134.88722876 -107.03893354 119.61675218 -111 105 C-111.17700439 104.36658691 -111.35400879 103.73317383 -111.53637695 103.08056641 C-113.1972634 96.48904648 -113.3464435 90.08644213 -113.3125 83.3125 C-113.30758545 82.15927246 -113.3026709 81.00604492 -113.29760742 79.81787109 C-113.03086825 60.41840962 -106.84857793 40.24425159 -93 26 C-92.34 26 -91.68 26 -91 26 C-90.92458984 25.17048828 -90.92458984 25.17048828 -90.84765625 24.32421875 C-89.6068974 20.92213802 -87.15285361 19.06289852 -84.4375 16.8125 C-83.86104736 16.33345215 -83.28459473 15.8544043 -82.69067383 15.36083984 C-59.18745603 -3.55829482 -28.7814185 -9.39667316 0 0 Z " fill="#D8D8D8" transform="translate(277,164)"/>
</svg>
